<svg width="1200" height="630" viewBox="0 0 1200 630" fill="none" xmlns="http://www.w3.org/2000/svg">
<rect width="776" height="440" transform="translate(212 95)" fill="white"/>
<rect width="60" height="60" transform="translate(498 245)" fill="black"/>
<g clip-path="url(#clip0_809_58859)">
<path d="M503.856 271.645H507.645V270.572H502.57V279.715H503.856V275.974V275.766V275.69H507.636V274.616H503.856V274.566V271.645Z" fill="white"/>
<path d="M511.717 270.572H510.305V279.715H511.717V270.572Z" fill="#6065AE"/>
<path d="M509.853 270.572H508.617V271.807H509.853V270.572Z" fill="#6065AE"/>
<path d="M518.451 275.69C519.418 275.503 520.503 274.746 520.503 273.142C520.503 271.327 519.045 270.572 517.416 270.572H514.832V279.715H516.118V275.69H517.044L519.483 279.715H521.033L518.451 275.69ZM516.118 274.616V271.619H517.898C518.644 271.624 519.255 272.298 519.255 273.118C519.255 273.938 518.644 274.612 517.898 274.617H516.118V274.616Z" fill="white"/>
<path d="M525.65 279.715C524.046 279.715 523.132 278.712 522.695 278.223L523.451 277.387C523.915 277.991 524.776 278.66 525.77 278.66C526.764 278.66 527.559 278.107 527.559 277.168C527.559 276.242 526.538 275.882 526.075 275.702C525.598 275.522 524.962 275.277 524.617 275.11C523.676 274.686 523.107 273.978 523.107 272.937C523.106 271.357 524.59 270.572 526.047 270.572C527.544 270.572 528.42 271.459 528.671 271.716L527.995 272.565C527.544 272.102 526.881 271.614 525.981 271.614C525.08 271.614 524.391 272.025 524.391 272.848C524.391 273.671 525.014 273.979 525.571 274.198L527.254 274.88C528.194 275.304 528.844 276.037 528.844 277.092C528.843 278.814 527.254 279.715 525.65 279.715Z" fill="white"/>
<path d="M534.346 271.645V279.715H533.06V271.645H530.477V270.572H536.916V271.645H534.346Z" fill="white"/>
<path d="M550.579 275.69C551.545 275.503 552.631 274.746 552.631 273.142C552.632 271.327 551.174 270.572 549.544 270.572H546.961V279.715H548.247V275.69H549.173L551.612 279.715H553.162L550.579 275.69ZM548.246 274.616V271.619H550.026C550.771 271.624 551.383 272.298 551.383 273.118C551.383 273.938 550.771 274.612 550.026 274.617H548.246V274.616Z" fill="white"/>
<path d="M540.263 278.628V275.69H544.052V274.616H540.263V274.374V274.121V271.645H544.455V270.572H538.996V279.715H544.455V278.628H540.263Z" fill="white"/>
</g>
<rect x="582" y="273" width="4" height="4" fill="#BEBEBE"/>
<rect x="596" y="273" width="4" height="4" fill="#BEBEBE"/>
<rect x="610" y="273" width="4" height="4" fill="#BEBEBE"/>
<path d="M638 275C638 257.327 652.327 243 670 243C687.673 243 702 257.327 702 275C702 292.673 687.673 307 670 307C652.327 307 638 292.673 638 275Z" fill="white"/>
<path d="M638 275C638 257.327 652.327 243 670 243C687.673 243 702 257.327 702 275C702 292.673 687.673 307 670 307C652.327 307 638 292.673 638 275Z" fill="#0B56A4"/>
<path fill-rule="evenodd" clip-rule="evenodd" d="M685.266 271.735H688.437C688.258 272.36 687.919 272.876 687.407 273.305C686.761 273.847 685.954 274.122 685.008 274.122C684.218 274.122 683.482 273.934 682.818 273.563C682.162 273.195 681.642 272.683 681.272 272.042C680.901 271.402 680.713 270.718 680.713 270.009C680.713 269.32 680.894 268.656 681.251 268.034C681.607 267.413 682.119 266.913 682.774 266.547C683.999 265.862 685.333 265.813 686.68 266.404C687.306 266.679 687.893 267.091 688.424 267.628L688.731 267.94L690.183 266.523L689.842 266.19C689.073 265.439 688.269 264.885 687.454 264.542C686.636 264.197 685.751 264.022 684.826 264.022C683.678 264.022 682.632 264.287 681.719 264.81C680.8 265.333 680.066 266.071 679.537 267.004C679.011 267.933 678.743 268.952 678.743 270.031C678.743 271.484 679.21 272.782 680.129 273.889C681.321 275.321 682.953 276.047 684.98 276.047C686.66 276.047 688.027 275.517 689.042 274.472C690.058 273.427 690.578 272.009 690.588 270.257L690.589 269.794H685.266V271.735ZM660.676 275.781H662.596V264.288H660.676V275.781ZM674.128 271.622L667.941 264.288H667.067V275.781H669.022V268.543L675.153 275.781H676.034V264.288H674.128V271.622ZM657.527 264.288H654.837L651.354 267.653V264.288H649.414V275.781H651.354V271.557L655.216 275.781H657.811L652.092 269.514L657.527 264.288Z" fill="white"/>
<path fill-rule="evenodd" clip-rule="evenodd" d="M675.042 279.872H673.612L672.266 284.681L670.429 279.872H669.836L667.979 284.68L666.654 279.872H665.22L667.509 288.18H668.11L670.135 282.968L672.121 288.18H672.722L675.042 279.872ZM682.313 286.767H678.463V284.429H681.807V283.016H678.463V281.286H682.313V279.872H677.074V288.18H682.313V286.767ZM662.508 285.521C662.263 285.965 661.917 286.32 661.48 286.576C661.041 286.834 660.557 286.964 660.041 286.964C659.27 286.964 658.602 286.681 658.056 286.123C657.51 285.564 657.234 284.869 657.234 284.057C657.234 283.505 657.359 282.999 657.607 282.553C657.853 282.109 658.2 281.749 658.64 281.485C659.081 281.222 659.552 281.088 660.041 281.088C660.54 281.088 661.02 281.222 661.467 281.487C661.914 281.75 662.264 282.105 662.508 282.542C662.753 282.978 662.877 283.476 662.877 284.021C662.877 284.571 662.753 285.075 662.508 285.521ZM660.007 279.681C659.259 279.681 658.554 279.874 657.911 280.257C657.266 280.642 656.752 281.179 656.381 281.854C656.009 282.529 655.82 283.271 655.82 284.06C655.82 285.248 656.235 286.275 657.052 287.112C657.869 287.948 658.884 288.372 660.068 288.372C661.24 288.372 662.247 287.946 663.062 287.106C663.877 286.265 664.291 285.228 664.291 284.023C664.291 282.808 663.876 281.769 663.058 280.935C662.242 280.102 661.215 279.681 660.007 279.681ZM686.21 283.22V281.286H687.231C687.811 281.286 688.08 281.346 688.203 281.397C688.362 281.462 688.487 281.568 688.585 281.722C688.685 281.877 688.734 282.045 688.734 282.236C688.734 282.435 688.685 282.611 688.585 282.771C688.49 282.925 688.357 283.035 688.182 283.107C688.045 283.162 687.765 283.229 687.204 283.229L686.21 283.22ZM687.892 284.597C688.272 284.555 688.595 284.474 688.855 284.356C689.267 284.168 689.589 283.884 689.813 283.512C690.035 283.145 690.147 282.717 690.147 282.239C690.147 281.662 689.983 281.166 689.658 280.765C689.338 280.368 688.917 280.106 688.408 279.985C688.088 279.909 687.516 279.872 686.658 279.872H684.822V288.18H686.21V284.667L688.854 288.18H690.589L687.892 284.597ZM653.136 282.776C653.039 282.93 652.907 283.039 652.734 283.109C652.599 283.164 652.316 283.229 651.74 283.229L650.803 283.217V281.286H651.791C652.362 281.286 652.631 281.347 652.756 281.397C652.916 281.463 653.037 281.566 653.136 281.724C653.237 281.882 653.286 282.053 653.286 282.244C653.286 282.443 653.237 282.617 653.136 282.776ZM654.233 283.712C654.542 283.321 654.699 282.827 654.699 282.242C654.699 281.659 654.538 281.164 654.221 280.77C653.908 280.381 653.501 280.12 653.011 279.997C652.683 279.912 652.112 279.872 651.217 279.872H649.414V288.18H650.803V284.626H651.01C651.965 284.626 652.607 284.582 652.973 284.493C653.502 284.361 653.925 284.099 654.233 283.712Z" fill="white"/>
<path fill-rule="evenodd" clip-rule="evenodd" d="M667.089 255.159C667.029 255.076 666.888 255.083 666.826 255.176C666.797 255.22 666.764 255.277 666.727 255.342C666.484 255.774 666.031 256.579 664.723 256.584C664.607 256.585 664.553 256.651 664.541 256.712C664.527 256.789 664.573 256.866 664.65 256.894C665.762 257.308 665.322 258.912 665.156 259.516C665.137 259.585 665.121 259.641 665.112 259.681C665.099 259.738 665.109 259.79 665.14 259.828C665.168 259.863 665.212 259.883 665.26 259.883C665.334 259.883 665.4 259.836 665.428 259.762L665.457 259.685C665.68 259.101 666.981 255.681 667.097 255.371C667.141 255.258 667.111 255.19 667.089 255.159ZM664.854 260.693H658.426C658.377 260.693 658.332 260.715 658.301 260.756C658.272 260.795 658.264 260.846 658.28 260.892L658.472 261.397C658.494 261.458 658.553 261.499 658.619 261.499H664.661C664.726 261.499 664.787 261.458 664.808 261.398L665.001 260.89C665.016 260.845 665.008 260.794 664.978 260.754C664.948 260.715 664.903 260.693 664.854 260.693ZM659.72 256.858C661.086 257.074 661.297 258.12 661.462 259.69C661.483 259.892 661.614 259.902 661.64 259.902C661.666 259.902 661.796 259.892 661.818 259.69C661.983 258.12 662.193 257.074 663.56 256.858C663.652 256.843 663.719 256.768 663.715 256.682C663.712 256.616 663.663 256.535 663.534 256.525C662.211 256.426 662.012 255.613 661.866 255.019C661.847 254.942 661.829 254.869 661.81 254.801C661.765 254.645 661.678 254.628 661.638 254.628C661.603 254.628 661.515 254.645 661.469 254.801C661.45 254.869 661.432 254.942 661.414 255.019C661.268 255.613 661.069 256.426 659.745 256.525C659.617 256.535 659.568 256.616 659.565 256.682C659.561 256.768 659.628 256.843 659.72 256.858ZM658.124 259.517C657.958 258.913 657.516 257.308 658.629 256.894C658.707 256.866 658.753 256.789 658.739 256.713C658.728 256.653 658.674 256.585 658.556 256.584C657.249 256.579 656.796 255.774 656.552 255.342C656.515 255.277 656.483 255.22 656.453 255.175C656.393 255.083 656.251 255.076 656.191 255.159C656.169 255.189 656.139 255.257 656.182 255.371C656.295 255.669 657.505 258.85 657.794 259.608L657.852 259.762C657.88 259.836 657.946 259.883 658.02 259.883H658.02C658.067 259.883 658.111 259.863 658.139 259.828C658.171 259.79 658.181 259.738 658.168 259.681C658.159 259.641 658.143 259.585 658.124 259.517Z" fill="#E9A216"/>
<path d="M463.344 353V339.2H468.744C470.304 339.2 471.51 339.58 472.364 340.34C473.23 341.087 473.664 342.127 473.664 343.46C473.664 345.767 472.657 347.207 470.644 347.78L473.784 353H470.324L467.624 347.98H466.304V353H463.344ZM468.324 345.7C469.084 345.7 469.664 345.513 470.064 345.14C470.464 344.767 470.664 344.24 470.664 343.56C470.664 342.867 470.457 342.353 470.044 342.02C469.63 341.673 469.057 341.5 468.324 341.5H466.284V345.7H468.324ZM480.124 343.04C481.017 343.04 481.797 343.233 482.464 343.62C483.144 343.993 483.664 344.513 484.024 345.18C484.397 345.847 484.577 346.607 484.564 347.46L484.544 348.84H478.144C478.237 349.6 478.477 350.16 478.864 350.52C479.264 350.88 479.77 351.06 480.384 351.06C480.957 351.06 481.484 350.96 481.964 350.76C482.457 350.56 482.864 350.32 483.184 350.04L484.264 351.72C483.864 352.12 483.317 352.473 482.624 352.78C481.93 353.073 481.137 353.22 480.244 353.22C479.217 353.22 478.317 353.013 477.544 352.6C476.784 352.173 476.197 351.573 475.784 350.8C475.384 350.027 475.184 349.12 475.184 348.08C475.184 347.093 475.39 346.22 475.804 345.46C476.23 344.687 476.817 344.093 477.564 343.68C478.31 343.253 479.164 343.04 480.124 343.04ZM481.824 347.08C481.81 346.533 481.657 346.067 481.364 345.68C481.07 345.28 480.65 345.08 480.104 345.08C479.01 345.08 478.364 345.747 478.164 347.08H481.824ZM490.761 353.22C489.828 353.22 489.008 353 488.301 352.56C487.594 352.107 487.048 351.493 486.661 350.72C486.288 349.947 486.101 349.08 486.101 348.12C486.101 347.16 486.288 346.293 486.661 345.52C487.048 344.747 487.594 344.14 488.301 343.7C489.008 343.26 489.828 343.04 490.761 343.04C491.548 343.04 492.201 343.187 492.721 343.48C493.254 343.773 493.648 344.107 493.901 344.48H493.941V339.2H496.861V353H494.081V351.64H494.021C493.661 352.16 493.194 352.553 492.621 352.82C492.061 353.087 491.441 353.22 490.761 353.22ZM491.581 350.8C492.328 350.8 492.921 350.553 493.361 350.06C493.814 349.553 494.041 348.893 494.041 348.08C494.041 347.267 493.814 346.613 493.361 346.12C492.921 345.613 492.328 345.36 491.581 345.36C490.848 345.36 490.248 345.613 489.781 346.12C489.328 346.627 489.101 347.28 489.101 348.08C489.101 348.88 489.328 349.533 489.781 350.04C490.248 350.547 490.848 350.8 491.581 350.8ZM502.395 343.22V353H499.455V343.22H502.395ZM502.435 342.12H499.415V339.32H502.435V342.12ZM504.981 353V343.22H507.901L507.881 344.66H507.921C508.454 343.58 509.261 343.04 510.341 343.04C510.794 343.04 511.127 343.093 511.341 343.2L511.181 345.9H511.061C510.701 345.753 510.321 345.68 509.921 345.68C509.254 345.68 508.747 345.94 508.401 346.46C508.067 346.967 507.901 347.66 507.901 348.54V353H504.981ZM516.94 343.04C517.834 343.04 518.614 343.233 519.28 343.62C519.96 343.993 520.48 344.513 520.84 345.18C521.214 345.847 521.394 346.607 521.38 347.46L521.36 348.84H514.96C515.054 349.6 515.294 350.16 515.68 350.52C516.08 350.88 516.587 351.06 517.2 351.06C517.774 351.06 518.3 350.96 518.78 350.76C519.274 350.56 519.68 350.32 520 350.04L521.08 351.72C520.68 352.12 520.134 352.473 519.44 352.78C518.747 353.073 517.954 353.22 517.06 353.22C516.034 353.22 515.134 353.013 514.36 352.6C513.6 352.173 513.014 351.573 512.6 350.8C512.2 350.027 512 349.12 512 348.08C512 347.093 512.207 346.22 512.62 345.46C513.047 344.687 513.634 344.093 514.38 343.68C515.127 343.253 515.98 343.04 516.94 343.04ZM518.64 347.08C518.627 346.533 518.474 346.067 518.18 345.68C517.887 345.28 517.467 345.08 516.92 345.08C515.827 345.08 515.18 345.747 514.98 347.08H518.64ZM528.037 353.22C527.131 353.22 526.284 353.02 525.497 352.62C524.724 352.207 524.097 351.62 523.617 350.86C523.151 350.087 522.917 349.18 522.917 348.14C522.917 347.1 523.157 346.193 523.637 345.42C524.117 344.647 524.751 344.06 525.537 343.66C526.337 343.247 527.191 343.04 528.097 343.04C528.897 343.04 529.611 343.16 530.237 343.4C530.864 343.627 531.364 343.907 531.737 344.24L530.617 346.16C529.991 345.653 529.231 345.4 528.337 345.4C527.657 345.4 527.077 345.647 526.597 346.14C526.117 346.633 525.877 347.28 525.877 348.08C525.877 348.893 526.111 349.547 526.577 350.04C527.044 350.533 527.644 350.78 528.377 350.78C529.191 350.78 529.937 350.507 530.617 349.96L531.797 351.9C531.384 352.273 530.851 352.587 530.197 352.84C529.544 353.093 528.824 353.22 528.037 353.22ZM537.598 353.22C536.451 353.22 535.611 352.92 535.078 352.32C534.544 351.707 534.278 350.787 534.278 349.56V345.42H532.458V343.22H534.278V340.52H537.218V343.22H539.818V345.42H537.218V349.32C537.218 349.853 537.311 350.233 537.498 350.46C537.698 350.687 538.004 350.8 538.418 350.8C538.644 350.8 538.864 350.78 539.078 350.74C539.304 350.7 539.484 350.653 539.618 350.6L539.978 352.82C539.738 352.913 539.384 353 538.918 353.08C538.464 353.173 538.024 353.22 537.598 353.22ZM544.582 343.22V353H541.642V343.22H544.582ZM544.622 342.12H541.602V339.32H544.622V342.12ZM547.088 353V343.22H550.028L550.008 344.66H550.048C550.275 344.18 550.648 343.793 551.168 343.5C551.688 343.193 552.295 343.04 552.988 343.04C554.308 343.04 555.242 343.413 555.788 344.16C556.335 344.893 556.608 345.913 556.608 347.22V353H553.668V347.82C553.668 347.047 553.548 346.453 553.308 346.04C553.068 345.627 552.628 345.42 551.988 345.42C550.682 345.42 550.028 346.333 550.028 348.16V353H547.088ZM563.344 356.84C562.344 356.84 561.424 356.687 560.584 356.38C559.744 356.073 559.104 355.733 558.664 355.36L559.864 353.36C560.304 353.667 560.824 353.94 561.424 354.18C562.037 354.433 562.664 354.56 563.304 354.56C565.304 354.56 566.304 353.633 566.304 351.78V351.24H566.264C565.531 352.227 564.484 352.72 563.124 352.72C562.297 352.72 561.524 352.533 560.804 352.16C560.097 351.773 559.531 351.22 559.104 350.5C558.677 349.767 558.464 348.893 558.464 347.88C558.464 346.867 558.677 346 559.104 345.28C559.531 344.547 560.097 343.993 560.804 343.62C561.524 343.233 562.297 343.04 563.124 343.04C564.497 343.04 565.551 343.54 566.284 344.54H566.324L566.284 343.22H569.224V351.32C569.224 353.187 568.717 354.573 567.704 355.48C566.691 356.387 565.237 356.84 563.344 356.84ZM563.924 350.46C564.671 350.46 565.264 350.22 565.704 349.74C566.157 349.247 566.384 348.633 566.384 347.9C566.384 347.167 566.157 346.56 565.704 346.08C565.264 345.587 564.671 345.34 563.924 345.34C563.177 345.34 562.577 345.587 562.124 346.08C561.684 346.56 561.464 347.167 561.464 347.9C561.464 348.633 561.684 349.247 562.124 349.74C562.577 350.22 563.177 350.46 563.924 350.46ZM579.824 353.22C578.678 353.22 577.838 352.92 577.304 352.32C576.771 351.707 576.504 350.787 576.504 349.56V345.42H574.684V343.22H576.504V340.52H579.444V343.22H582.044V345.42H579.444V349.32C579.444 349.853 579.538 350.233 579.724 350.46C579.924 350.687 580.231 350.8 580.644 350.8C580.871 350.8 581.091 350.78 581.304 350.74C581.531 350.7 581.711 350.653 581.844 350.6L582.204 352.82C581.964 352.913 581.611 353 581.144 353.08C580.691 353.173 580.251 353.22 579.824 353.22ZM588.333 353.22C587.306 353.22 586.393 353.007 585.593 352.58C584.806 352.153 584.193 351.56 583.753 350.8C583.313 350.027 583.093 349.14 583.093 348.14C583.093 347.14 583.313 346.253 583.753 345.48C584.193 344.707 584.806 344.107 585.593 343.68C586.393 343.253 587.306 343.04 588.333 343.04C589.36 343.04 590.266 343.253 591.053 343.68C591.84 344.107 592.453 344.707 592.893 345.48C593.333 346.253 593.553 347.14 593.553 348.14C593.553 349.14 593.333 350.027 592.893 350.8C592.453 351.56 591.84 352.153 591.053 352.58C590.266 353.007 589.36 353.22 588.333 353.22ZM588.333 350.82C589.066 350.82 589.626 350.573 590.013 350.08C590.413 349.587 590.613 348.92 590.613 348.08C590.613 347.253 590.42 346.6 590.033 346.12C589.646 345.627 589.08 345.38 588.333 345.38C587.586 345.38 587.013 345.62 586.613 346.1C586.226 346.58 586.033 347.24 586.033 348.08C586.033 348.92 586.226 349.587 586.613 350.08C587.013 350.573 587.586 350.82 588.333 350.82ZM603.333 343.04C606.48 343.04 608.053 344.5 608.053 347.42V353H605.233L605.173 352.06C604.906 352.38 604.54 352.653 604.073 352.88C603.606 353.107 603.013 353.22 602.293 353.22C601.68 353.22 601.106 353.107 600.573 352.88C600.04 352.653 599.606 352.307 599.273 351.84C598.94 351.373 598.773 350.8 598.773 350.12C598.773 349.173 599.113 348.46 599.793 347.98C600.473 347.487 601.393 347.2 602.553 347.12L605.113 346.96V346.78C605.113 346.22 604.926 345.8 604.553 345.52C604.193 345.227 603.68 345.08 603.013 345.08C602.453 345.08 601.893 345.173 601.333 345.36C600.786 345.547 600.346 345.747 600.013 345.96L599.213 344.04C599.733 343.76 600.346 343.527 601.053 343.34C601.76 343.14 602.52 343.04 603.333 343.04ZM603.193 351.32C603.753 351.32 604.213 351.133 604.573 350.76C604.946 350.373 605.133 349.86 605.133 349.22V348.54L603.353 348.72C602.246 348.827 601.693 349.26 601.693 350.02C601.693 350.42 601.833 350.74 602.113 350.98C602.393 351.207 602.753 351.32 603.193 351.32ZM614.198 353V343.22H617.138L617.118 344.66H617.158C617.384 344.18 617.758 343.793 618.278 343.5C618.798 343.193 619.404 343.04 620.098 343.04C621.418 343.04 622.351 343.413 622.898 344.16C623.444 344.893 623.718 345.913 623.718 347.22V353H620.778V347.82C620.778 347.047 620.658 346.453 620.418 346.04C620.178 345.627 619.738 345.42 619.098 345.42C617.791 345.42 617.138 346.333 617.138 348.16V353H614.198ZM630.554 343.04C631.447 343.04 632.227 343.233 632.894 343.62C633.574 343.993 634.094 344.513 634.454 345.18C634.827 345.847 635.007 346.607 634.994 347.46L634.974 348.84H628.574C628.667 349.6 628.907 350.16 629.294 350.52C629.694 350.88 630.2 351.06 630.814 351.06C631.387 351.06 631.914 350.96 632.394 350.76C632.887 350.56 633.294 350.32 633.614 350.04L634.694 351.72C634.294 352.12 633.747 352.473 633.054 352.78C632.36 353.073 631.567 353.22 630.674 353.22C629.647 353.22 628.747 353.013 627.974 352.6C627.214 352.173 626.627 351.573 626.214 350.8C625.814 350.027 625.614 349.12 625.614 348.08C625.614 347.093 625.82 346.22 626.234 345.46C626.66 344.687 627.247 344.093 627.994 343.68C628.74 343.253 629.594 343.04 630.554 343.04ZM632.254 347.08C632.24 346.533 632.087 346.067 631.794 345.68C631.5 345.28 631.08 345.08 630.534 345.08C629.44 345.08 628.794 345.747 628.594 347.08H632.254ZM641.675 353H638.915L635.695 343.22H638.655L640.495 349.7L642.515 343.2H644.915L646.935 349.7L648.775 343.22H651.755L648.515 353H645.775L643.735 346.74L641.675 353ZM657.012 356.64V343.22H659.812L659.792 344.54H659.832C660.619 343.54 661.725 343.04 663.152 343.04C664.072 343.04 664.879 343.26 665.572 343.7C666.279 344.14 666.819 344.747 667.192 345.52C667.579 346.293 667.772 347.16 667.772 348.12C667.772 349.08 667.579 349.947 667.192 350.72C666.819 351.493 666.279 352.107 665.572 352.56C664.865 353 664.052 353.22 663.132 353.22C661.705 353.22 660.659 352.713 659.992 351.7H659.952V356.64H657.012ZM662.312 350.8C663.059 350.8 663.659 350.547 664.112 350.04C664.565 349.533 664.792 348.88 664.792 348.08C664.792 347.28 664.565 346.627 664.112 346.12C663.659 345.613 663.059 345.36 662.312 345.36C661.579 345.36 660.985 345.613 660.532 346.12C660.079 346.627 659.852 347.28 659.852 348.08C659.852 348.88 660.079 349.533 660.532 350.04C660.985 350.547 661.579 350.8 662.312 350.8ZM672.726 339.2V353H669.806V339.2H672.726ZM679.153 343.04C682.3 343.04 683.873 344.5 683.873 347.42V353H681.053L680.993 352.06C680.727 352.38 680.36 352.653 679.893 352.88C679.427 353.107 678.833 353.22 678.113 353.22C677.5 353.22 676.927 353.107 676.393 352.88C675.86 352.653 675.427 352.307 675.093 351.84C674.76 351.373 674.593 350.8 674.593 350.12C674.593 349.173 674.933 348.46 675.613 347.98C676.293 347.487 677.213 347.2 678.373 347.12L680.933 346.96V346.78C680.933 346.22 680.747 345.8 680.373 345.52C680.013 345.227 679.5 345.08 678.833 345.08C678.273 345.08 677.713 345.173 677.153 345.36C676.607 345.547 676.167 345.747 675.833 345.96L675.033 344.04C675.553 343.76 676.167 343.527 676.873 343.34C677.58 343.14 678.34 343.04 679.153 343.04ZM679.013 351.32C679.573 351.32 680.033 351.133 680.393 350.76C680.767 350.373 680.953 349.86 680.953 349.22V348.54L679.173 348.72C678.067 348.827 677.513 349.26 677.513 350.02C677.513 350.42 677.653 350.74 677.933 350.98C678.213 351.207 678.573 351.32 679.013 351.32ZM690.313 353.22C689.166 353.22 688.326 352.92 687.793 352.32C687.259 351.707 686.993 350.787 686.993 349.56V345.42H685.173V343.22H686.993V340.52H689.933V343.22H692.533V345.42H689.933V349.32C689.933 349.853 690.026 350.233 690.213 350.46C690.413 350.687 690.719 350.8 691.133 350.8C691.359 350.8 691.579 350.78 691.793 350.74C692.019 350.7 692.199 350.653 692.333 350.6L692.693 352.82C692.453 352.913 692.099 353 691.633 353.08C691.179 353.173 690.739 353.22 690.313 353.22ZM695.057 353V345.42H693.357V343.22H695.057V342.58C695.057 341.42 695.41 340.533 696.117 339.92C696.824 339.293 697.75 338.98 698.897 338.98C699.71 338.98 700.404 339.067 700.977 339.24L700.657 341.24C700.257 341.147 699.824 341.1 699.357 341.1C698.45 341.1 697.997 341.547 697.997 342.44V343.22H700.577V345.42H697.997V353H695.057ZM706.849 353.22C705.822 353.22 704.909 353.007 704.109 352.58C703.322 352.153 702.709 351.56 702.269 350.8C701.829 350.027 701.609 349.14 701.609 348.14C701.609 347.14 701.829 346.253 702.269 345.48C702.709 344.707 703.322 344.107 704.109 343.68C704.909 343.253 705.822 343.04 706.849 343.04C707.875 343.04 708.782 343.253 709.569 343.68C710.355 344.107 710.969 344.707 711.409 345.48C711.849 346.253 712.069 347.14 712.069 348.14C712.069 349.14 711.849 350.027 711.409 350.8C710.969 351.56 710.355 352.153 709.569 352.58C708.782 353.007 707.875 353.22 706.849 353.22ZM706.849 350.82C707.582 350.82 708.142 350.573 708.529 350.08C708.929 349.587 709.129 348.92 709.129 348.08C709.129 347.253 708.935 346.6 708.549 346.12C708.162 345.627 707.595 345.38 706.849 345.38C706.102 345.38 705.529 345.62 705.129 346.1C704.742 346.58 704.549 347.24 704.549 348.08C704.549 348.92 704.742 349.587 705.129 350.08C705.529 350.573 706.102 350.82 706.849 350.82ZM714.043 353V343.22H716.963L716.943 344.66H716.983C717.517 343.58 718.323 343.04 719.403 343.04C719.857 343.04 720.19 343.093 720.403 343.2L720.243 345.9H720.123C719.763 345.753 719.383 345.68 718.983 345.68C718.317 345.68 717.81 345.94 717.463 346.46C717.13 346.967 716.963 347.66 716.963 348.54V353H714.043ZM736.916 353H733.976V347.6C733.976 346.933 733.869 346.407 733.656 346.02C733.456 345.633 733.089 345.44 732.556 345.44C731.969 345.44 731.529 345.647 731.236 346.06C730.956 346.473 730.816 347.053 730.816 347.8V353H727.896V347.6C727.896 346.92 727.782 346.393 727.556 346.02C727.342 345.633 726.969 345.44 726.436 345.44C725.876 345.44 725.449 345.653 725.156 346.08C724.862 346.507 724.716 347.093 724.716 347.84V353H721.796V343.22H724.716V344.66H724.756C725.009 344.18 725.376 343.793 725.856 343.5C726.349 343.193 726.929 343.04 727.596 343.04C728.316 343.04 728.902 343.187 729.356 343.48C729.809 343.773 730.156 344.24 730.396 344.88C731.076 343.653 732.122 343.04 733.536 343.04C734.709 343.04 735.562 343.4 736.096 344.12C736.642 344.827 736.916 345.807 736.916 347.06V353Z" fill="#6065AE"/>
<path d="M450.214 380H448.838V368.512H455.414V369.808H450.214V373.808H455.254V375.088H450.214V380ZM458.775 380H457.447V371.504H458.775V380ZM458.103 369.952C457.665 369.664 457.297 369.296 456.999 368.848C457.287 368.4 457.655 368.032 458.103 367.744C458.519 368.011 458.887 368.379 459.207 368.848C458.908 369.296 458.54 369.664 458.103 369.952ZM461.348 380V371.504H462.628V372.896C462.809 372.405 463.113 372.021 463.54 371.744C463.977 371.456 464.447 371.312 464.948 371.312C465.353 371.312 465.695 371.355 465.972 371.44V372.608C465.716 372.544 465.401 372.512 465.028 372.512C464.26 372.512 463.673 372.773 463.268 373.296C462.873 373.819 462.676 374.64 462.676 375.76V380H461.348ZM470.079 380.224C469.439 380.224 468.852 380.117 468.319 379.904C467.785 379.691 467.327 379.392 466.943 379.008L467.727 378.112C468.377 378.731 469.172 379.04 470.111 379.04C470.655 379.04 471.092 378.923 471.423 378.688C471.753 378.443 471.919 378.112 471.919 377.696C471.919 377.429 471.828 377.205 471.647 377.024C471.476 376.832 471.263 376.677 471.007 376.56C470.751 376.443 470.388 376.304 469.919 376.144C469.353 375.952 468.889 375.771 468.527 375.6C468.164 375.419 467.855 375.173 467.599 374.864C467.353 374.544 467.231 374.144 467.231 373.664C467.231 373.195 467.364 372.779 467.631 372.416C467.897 372.053 468.265 371.776 468.735 371.584C469.204 371.381 469.737 371.28 470.335 371.28C470.825 371.28 471.316 371.381 471.807 371.584C472.297 371.787 472.735 372.075 473.119 372.448L472.319 373.28C472.041 373.035 471.721 372.843 471.359 372.704C471.007 372.555 470.66 372.48 470.319 372.48C469.764 372.48 469.327 372.581 469.007 372.784C468.687 372.976 468.527 373.253 468.527 373.616C468.527 373.957 468.681 374.229 468.991 374.432C469.311 374.624 469.796 374.832 470.447 375.056C471.044 375.269 471.524 375.467 471.887 375.648C472.26 375.829 472.575 376.085 472.831 376.416C473.097 376.736 473.231 377.147 473.231 377.648C473.231 378.16 473.092 378.613 472.815 379.008C472.537 379.392 472.159 379.691 471.679 379.904C471.199 380.117 470.665 380.224 470.079 380.224ZM477.324 380H475.996V372.608H474.316V371.504H475.996V368.336H477.324V371.504H478.988V372.608H477.324V380ZM481.548 376.032V376.432C481.537 377.243 481.756 377.883 482.204 378.352C482.652 378.811 483.239 379.04 483.964 379.04C484.583 379.04 485.084 378.896 485.468 378.608C485.852 378.32 486.129 377.936 486.3 377.456L487.5 377.968C487.212 378.672 486.775 379.227 486.188 379.632C485.601 380.027 484.865 380.224 483.98 380.224C483.233 380.224 482.572 380.064 481.996 379.744C481.431 379.424 480.988 378.981 480.668 378.416C480.348 377.84 480.188 377.184 480.188 376.448V375.056C480.188 374.331 480.348 373.685 480.668 373.12C480.988 372.544 481.431 372.096 481.996 371.776C482.572 371.456 483.228 371.296 483.964 371.296C484.711 371.296 485.372 371.461 485.948 371.792C486.524 372.112 486.967 372.565 487.276 373.152C487.585 373.728 487.74 374.395 487.74 375.152V376.032H481.548ZM483.964 372.464C483.26 372.464 482.7 372.672 482.284 373.088C481.868 373.504 481.633 374.128 481.58 374.96H486.364C486.353 374.171 486.129 373.557 485.692 373.12C485.255 372.683 484.679 372.464 483.964 372.464ZM489.942 380V371.504H491.222V372.896C491.403 372.405 491.707 372.021 492.134 371.744C492.571 371.456 493.04 371.312 493.542 371.312C493.947 371.312 494.288 371.355 494.566 371.44V372.608C494.31 372.544 493.995 372.512 493.622 372.512C492.854 372.512 492.267 372.773 491.862 373.296C491.467 373.819 491.27 374.64 491.27 375.76V380H489.942ZM502.842 377.104C503.29 377.104 503.653 377.248 503.93 377.536C504.208 377.824 504.346 378.181 504.346 378.608C504.346 379.045 504.202 379.413 503.914 379.712C503.626 380.011 503.237 380.16 502.746 380.16C502.234 380.16 501.824 380.005 501.514 379.696C501.205 379.376 501.05 378.96 501.05 378.448V370.736C501.05 370.149 501.13 369.621 501.29 369.152C501.45 368.672 501.696 368.309 502.026 368.064C501.717 368.149 501.386 368.192 501.034 368.192C500.661 368.192 500.288 368.155 499.914 368.08C499.541 367.995 499.242 367.893 499.018 367.776L499.466 366.672C499.701 366.789 499.989 366.885 500.33 366.96C500.682 367.035 501.056 367.072 501.45 367.072C501.856 367.072 502.256 367.035 502.65 366.96C503.045 366.885 503.344 366.795 503.546 366.688L504.042 367.68L503.21 368.256C502.901 368.469 502.677 368.784 502.538 369.2C502.41 369.616 502.346 370.123 502.346 370.72V377.216C502.485 377.141 502.65 377.104 502.842 377.104ZM502.778 379.36C502.981 379.36 503.146 379.291 503.274 379.152C503.413 379.013 503.482 378.843 503.482 378.64C503.482 378.437 503.413 378.267 503.274 378.128C503.146 377.979 502.981 377.904 502.778 377.904C502.565 377.904 502.389 377.979 502.25 378.128C502.122 378.267 502.058 378.437 502.058 378.64C502.058 378.843 502.122 379.013 502.25 379.152C502.389 379.291 502.565 379.36 502.778 379.36ZM509.578 371.152C510.357 371.152 511.034 371.301 511.61 371.6C512.186 371.888 512.624 372.299 512.922 372.832C513.232 373.355 513.386 373.957 513.386 374.64V380H512.09V374.576C512.09 373.861 511.866 373.291 511.418 372.864C510.981 372.437 510.368 372.224 509.578 372.224C508.789 372.224 508.17 372.437 507.722 372.864C507.274 373.291 507.05 373.861 507.05 374.576V379.024C507.637 378.96 508.16 378.768 508.618 378.448C509.088 378.117 509.381 377.744 509.498 377.328H509.482C509.002 377.328 508.624 377.2 508.346 376.944C508.069 376.677 507.93 376.336 507.93 375.92C507.93 375.504 508.074 375.157 508.362 374.88C508.65 374.592 509.013 374.448 509.45 374.448C509.92 374.448 510.293 374.597 510.57 374.896C510.848 375.195 510.986 375.605 510.986 376.128C510.986 376.768 510.8 377.387 510.426 377.984C510.053 378.581 509.541 379.067 508.89 379.44C508.25 379.813 507.546 380 506.778 380H505.77V374.64C505.77 373.957 505.925 373.355 506.234 372.832C506.544 372.299 506.981 371.888 507.546 371.6C508.122 371.301 508.8 371.152 509.578 371.152ZM509.434 376.608C509.648 376.608 509.818 376.544 509.946 376.416C510.074 376.277 510.138 376.107 510.138 375.904C510.138 375.701 510.074 375.536 509.946 375.408C509.818 375.269 509.648 375.2 509.434 375.2C509.232 375.2 509.066 375.269 508.938 375.408C508.81 375.536 508.746 375.701 508.746 375.904C508.746 376.096 508.81 376.261 508.938 376.4C509.066 376.539 509.232 376.608 509.434 376.608ZM514.298 366.56C514.298 367.627 513.935 368.443 513.21 369.008C512.474 369.573 511.535 369.856 510.394 369.856H509.066V369.088C509.492 369.045 509.78 368.896 509.93 368.64H509.786C509.455 368.64 509.188 368.539 508.986 368.336C508.772 368.123 508.666 367.845 508.666 367.504C508.666 367.163 508.788 366.891 509.034 366.688C509.279 366.475 509.578 366.368 509.93 366.368C510.282 366.368 510.58 366.485 510.826 366.72C511.071 366.955 511.194 367.275 511.194 367.68C511.194 368.181 511.018 368.608 510.666 368.96C511.455 368.939 512.047 368.736 512.442 368.352C512.836 367.968 513.034 367.371 513.034 366.56H514.298ZM509.354 367.504C509.354 367.664 509.402 367.792 509.498 367.888C509.594 367.984 509.722 368.032 509.882 368.032C510.031 368.032 510.154 367.984 510.25 367.888C510.346 367.792 510.394 367.664 510.394 367.504C510.394 367.365 510.346 367.248 510.25 367.152C510.154 367.056 510.031 367.008 509.882 367.008C509.722 367.008 509.594 367.056 509.498 367.152C509.402 367.237 509.354 367.355 509.354 367.504ZM521.866 371.296H523.146V380H515.85V378C515.85 377.392 515.988 376.896 516.266 376.512C516.543 376.128 516.916 375.893 517.386 375.808V375.776C516.916 375.659 516.522 375.403 516.202 375.008C515.882 374.613 515.722 374.08 515.722 373.408C515.722 372.768 515.924 372.235 516.33 371.808C516.746 371.371 517.274 371.152 517.914 371.152C518.426 371.152 518.831 371.301 519.13 371.6C519.428 371.888 519.578 372.251 519.578 372.688C519.578 373.115 519.434 373.472 519.146 373.76C518.858 374.037 518.484 374.176 518.026 374.176C517.812 374.176 517.604 374.133 517.402 374.048C517.21 373.952 517.05 373.835 516.922 373.696C516.954 374.197 517.124 374.581 517.434 374.848C517.754 375.115 518.18 375.248 518.714 375.248H519.658V376.272H518.714C518.17 376.272 517.77 376.416 517.514 376.704C517.268 376.992 517.146 377.387 517.146 377.888V378.912H521.866V371.296ZM518.026 371.936C517.791 371.936 517.61 372.005 517.482 372.144C517.354 372.283 517.29 372.453 517.29 372.656C517.29 372.869 517.354 373.045 517.482 373.184C517.61 373.323 517.791 373.392 518.026 373.392C518.228 373.392 518.394 373.323 518.522 373.184C518.66 373.035 518.73 372.859 518.73 372.656C518.73 372.464 518.66 372.299 518.522 372.16C518.394 372.011 518.228 371.936 518.026 371.936ZM524.079 366.56C524.079 367.627 523.716 368.443 522.991 369.008C522.255 369.573 521.316 369.856 520.175 369.856H518.847V369.088C519.273 369.045 519.561 368.896 519.711 368.64H519.567C519.236 368.64 518.969 368.539 518.767 368.336C518.553 368.123 518.447 367.845 518.447 367.504C518.447 367.163 518.569 366.891 518.815 366.688C519.06 366.475 519.359 366.368 519.711 366.368C520.063 366.368 520.361 366.485 520.607 366.72C520.852 366.955 520.975 367.275 520.975 367.68C520.975 368.181 520.799 368.608 520.447 368.96C521.236 368.939 521.828 368.736 522.223 368.352C522.617 367.968 522.815 367.371 522.815 366.56H524.079ZM519.135 367.504C519.135 367.664 519.183 367.792 519.279 367.888C519.375 367.984 519.503 368.032 519.663 368.032C519.812 368.032 519.935 367.984 520.031 367.888C520.127 367.792 520.175 367.664 520.175 367.504C520.175 367.365 520.127 367.248 520.031 367.152C519.935 367.056 519.812 367.008 519.663 367.008C519.503 367.008 519.375 367.056 519.279 367.152C519.183 367.237 519.135 367.355 519.135 367.504ZM530.047 374.32C530.047 373.637 529.86 373.115 529.487 372.752C529.113 372.389 528.623 372.208 528.015 372.208C527.513 372.208 527.081 372.32 526.719 372.544C526.356 372.768 526.031 373.115 525.743 373.584L524.767 372.896C525.108 372.32 525.556 371.877 526.111 371.568C526.665 371.248 527.305 371.088 528.031 371.088C528.66 371.088 529.225 371.211 529.727 371.456C530.228 371.701 530.623 372.064 530.911 372.544C531.199 373.024 531.343 373.6 531.343 374.272V380H530.047V374.32ZM539.772 371.296H541.052V380H533.756V378C533.756 377.392 533.894 376.896 534.172 376.512C534.449 376.128 534.822 375.893 535.292 375.808V375.776C534.822 375.659 534.428 375.403 534.108 375.008C533.788 374.613 533.628 374.08 533.628 373.408C533.628 372.768 533.83 372.235 534.236 371.808C534.652 371.371 535.18 371.152 535.82 371.152C536.332 371.152 536.737 371.301 537.036 371.6C537.334 371.888 537.484 372.251 537.484 372.688C537.484 373.115 537.34 373.472 537.052 373.76C536.764 374.037 536.39 374.176 535.932 374.176C535.718 374.176 535.51 374.133 535.308 374.048C535.116 373.952 534.956 373.835 534.828 373.696C534.86 374.197 535.03 374.581 535.34 374.848C535.66 375.115 536.086 375.248 536.62 375.248H537.564V376.272H536.62C536.076 376.272 535.676 376.416 535.42 376.704C535.174 376.992 535.052 377.387 535.052 377.888V378.912H539.772V371.296ZM535.932 371.936C535.697 371.936 535.516 372.005 535.388 372.144C535.26 372.283 535.196 372.453 535.196 372.656C535.196 372.869 535.26 373.045 535.388 373.184C535.516 373.323 535.697 373.392 535.932 373.392C536.134 373.392 536.3 373.323 536.428 373.184C536.566 373.035 536.636 372.859 536.636 372.656C536.636 372.464 536.566 372.299 536.428 372.16C536.3 372.011 536.134 371.936 535.932 371.936ZM544.017 380V375.296H543.089V374.672C543.089 373.989 543.254 373.376 543.585 372.832C543.916 372.288 544.374 371.861 544.961 371.552C545.558 371.243 546.23 371.088 546.977 371.088C547.756 371.088 548.438 371.237 549.025 371.536C549.622 371.824 550.081 372.24 550.401 372.784C550.721 373.317 550.881 373.952 550.881 374.688V380H549.585V374.688C549.585 373.877 549.356 373.259 548.897 372.832C548.449 372.405 547.809 372.192 546.977 372.192C546.177 372.192 545.548 372.4 545.089 372.816C544.63 373.232 544.401 373.776 544.401 374.448H546.209V375.296H545.297V380H544.017ZM557.734 374.32C557.734 373.637 557.548 373.115 557.174 372.752C556.801 372.389 556.31 372.208 555.702 372.208C555.201 372.208 554.769 372.32 554.406 372.544C554.044 372.768 553.718 373.115 553.43 373.584L552.454 372.896C552.796 372.32 553.244 371.877 553.798 371.568C554.353 371.248 554.993 371.088 555.718 371.088C556.348 371.088 556.913 371.211 557.414 371.456C557.916 371.701 558.31 372.064 558.598 372.544C558.886 373.024 559.03 373.6 559.03 374.272V380H557.734V374.32ZM564.483 372.208C563.822 372.208 563.31 372.368 562.947 372.688C562.585 373.008 562.403 373.397 562.403 373.856C562.403 374.016 562.409 374.133 562.419 374.208H564.515C565.123 374.208 565.603 374.352 565.955 374.64C566.318 374.917 566.499 375.328 566.499 375.872V378.448C566.499 378.949 566.339 379.36 566.019 379.68C565.699 380 565.283 380.16 564.771 380.16C564.281 380.16 563.897 380.016 563.619 379.728C563.342 379.429 563.203 379.056 563.203 378.608C563.203 378.181 563.342 377.824 563.619 377.536C563.897 377.248 564.259 377.104 564.707 377.104C564.899 377.104 565.065 377.141 565.203 377.216V376.032C565.203 375.723 565.123 375.504 564.963 375.376C564.814 375.248 564.585 375.184 564.275 375.184H561.459C561.385 375.045 561.315 374.853 561.251 374.608C561.187 374.363 561.155 374.128 561.155 373.904C561.155 373.36 561.294 372.875 561.571 372.448C561.859 372.021 562.254 371.691 562.755 371.456C563.267 371.211 563.859 371.088 564.531 371.088C565.171 371.088 565.769 371.184 566.323 371.376C566.878 371.568 567.353 371.845 567.747 372.208L567.027 373.088C566.377 372.501 565.529 372.208 564.483 372.208ZM564.771 379.36C564.985 379.36 565.155 379.291 565.283 379.152C565.422 379.013 565.491 378.843 565.491 378.64C565.491 378.437 565.422 378.267 565.283 378.128C565.155 377.979 564.985 377.904 564.771 377.904C564.569 377.904 564.398 377.979 564.259 378.128C564.131 378.267 564.067 378.437 564.067 378.64C564.067 378.843 564.131 379.013 564.259 379.152C564.398 379.291 564.569 379.36 564.771 379.36ZM572.264 377.104C572.712 377.104 573.075 377.248 573.352 377.536C573.629 377.824 573.768 378.181 573.768 378.608C573.768 379.045 573.624 379.413 573.336 379.712C573.048 380.011 572.659 380.16 572.168 380.16C571.656 380.16 571.245 380.005 570.936 379.696C570.627 379.376 570.472 378.96 570.472 378.448V370.736C570.472 370.149 570.557 369.621 570.728 369.152C570.899 368.672 571.139 368.309 571.448 368.064C571.225 368.149 570.894 368.192 570.542 368.192C570.169 368.192 569.796 368.155 569.422 368.08C569.049 367.995 568.75 367.893 568.526 367.776L568.974 366.672C569.209 366.789 569.497 366.885 569.838 366.96C570.19 367.035 570.564 367.072 570.958 367.072C571.364 367.072 571.764 367.035 572.158 366.96C572.553 366.885 572.852 366.795 573.054 366.688L573.55 367.68L572.718 368.256C572.409 368.469 572.185 368.784 572.046 369.2C571.918 369.616 571.854 370.123 571.854 370.72V377.216C571.993 377.141 572.158 377.104 572.264 377.104ZM572.286 379.36C572.489 379.36 572.654 379.291 572.782 379.152C572.921 379.013 572.99 378.843 572.99 378.64C572.99 378.437 572.921 378.267 572.782 378.128C572.654 377.979 572.489 377.904 572.286 377.904C572.073 377.904 571.897 377.979 571.758 378.128C571.63 378.267 571.566 378.437 571.566 378.64C571.566 378.843 571.63 379.013 571.758 379.152C571.897 379.291 572.073 379.36 572.286 379.36ZM582.408 374.064C582.686 374.256 582.883 374.517 583 374.848C583.118 375.179 583.176 375.6 583.176 376.112V380H581.896V376.128C581.896 375.723 581.854 375.403 581.768 375.168C581.694 374.933 581.55 374.763 581.336 374.656L576.856 380.128H576.168V374.112C576.03 374.165 575.875 374.192 575.704 374.192C575.256 374.192 574.894 374.048 574.616 373.76C574.35 373.472 574.216 373.115 574.216 372.688C574.216 372.261 574.36 371.899 574.648 371.6C574.947 371.301 575.331 371.152 575.8 371.152C576.312 371.152 576.718 371.301 577.016 371.6C577.315 371.888 577.464 372.288 577.464 372.8V377.712L580.504 374.048C580.28 373.909 580.104 373.728 579.976 373.504C579.859 373.269 579.8 373.024 579.8 372.768C579.8 372.32 579.95 371.947 580.248 371.648C580.558 371.339 580.958 371.184 581.448 371.184C581.971 371.184 582.382 371.333 582.68 371.632C582.99 371.92 583.144 372.304 583.144 372.784C583.144 373.051 583.08 373.296 582.952 373.52C582.824 373.744 582.643 373.925 582.408 374.064ZM575.064 372.656C575.064 372.859 575.128 373.035 575.256 373.184C575.395 373.323 575.571 373.392 575.784 373.392C576.008 373.392 576.179 373.323 576.296 373.184C576.424 373.045 576.488 372.869 576.488 372.656C576.488 372.453 576.424 372.283 576.296 372.144C576.179 372.005 576.008 371.936 575.784 371.936C575.571 371.936 575.395 372.005 575.256 372.144C575.128 372.283 575.064 372.453 575.064 372.656ZM581.448 371.984C581.224 371.984 581.038 372.059 580.888 372.208C580.75 372.347 580.68 372.528 580.68 372.752C580.68 372.965 580.755 373.147 580.904 373.296C581.054 373.445 581.235 373.52 581.448 373.52C581.683 373.52 581.864 373.445 581.992 373.296C582.131 373.147 582.2 372.965 582.2 372.752C582.2 372.528 582.131 372.347 581.992 372.208C581.864 372.059 581.683 371.984 581.448 371.984ZM584.11 366.56C584.11 367.627 583.747 368.443 583.022 369.008C582.286 369.573 581.347 369.856 580.206 369.856H578.878V369.088C579.305 369.045 579.593 368.896 579.742 368.64H579.598C579.267 368.64 579.001 368.539 578.798 368.336C578.585 368.123 578.478 367.845 578.478 367.504C578.478 367.163 578.601 366.891 578.846 366.688C579.091 366.475 579.39 366.368 579.742 366.368C580.094 366.368 580.393 366.485 580.638 366.72C580.883 366.955 581.006 367.275 581.006 367.68C581.006 368.181 580.83 368.608 580.478 368.96C581.267 368.939 581.859 368.736 582.254 368.352C582.649 367.968 582.846 367.371 582.846 366.56H584.11ZM579.166 367.504C579.166 367.664 579.214 367.792 579.31 367.888C579.406 367.984 579.534 368.032 579.694 368.032C579.843 368.032 579.966 367.984 580.062 367.888C580.158 367.792 580.206 367.664 580.206 367.504C580.206 367.365 580.158 367.248 580.062 367.152C579.966 367.056 579.843 367.008 579.694 367.008C579.534 367.008 579.406 367.056 579.31 367.152C579.214 367.237 579.166 367.355 579.166 367.504ZM592.254 371.296H593.534V380H586.606V374.128C586.478 374.171 586.318 374.192 586.126 374.192C585.678 374.192 585.315 374.048 585.038 373.76C584.771 373.472 584.638 373.115 584.638 372.688C584.638 372.261 584.782 371.899 585.07 371.6C585.369 371.301 585.753 371.152 586.222 371.152C586.734 371.152 587.139 371.301 587.438 371.6C587.737 371.888 587.886 372.288 587.886 372.8V378.912H592.254V371.296ZM585.486 372.656C585.486 372.859 585.55 373.035 585.678 373.184C585.817 373.323 585.993 373.392 586.206 373.392C586.43 373.392 586.601 373.323 586.718 373.184C586.846 373.045 586.91 372.869 586.91 372.656C586.91 372.453 586.846 372.283 586.718 372.144C586.601 372.005 586.43 371.936 586.206 371.936C585.993 371.936 585.817 372.005 585.678 372.144C585.55 372.283 585.486 372.453 585.486 372.656ZM599.061 372.208C598.4 372.208 597.888 372.368 597.525 372.688C597.163 373.008 596.981 373.397 596.981 373.856C596.981 374.016 596.987 374.133 596.997 374.208H599.093C599.701 374.208 600.181 374.352 600.533 374.64C600.896 374.917 601.077 375.328 601.077 375.872V378.448C601.077 378.949 600.917 379.36 600.597 379.68C600.277 380 599.861 380.16 599.349 380.16C598.859 380.16 598.475 380.016 598.197 379.728C597.92 379.429 597.781 379.056 597.781 378.608C597.781 378.181 597.92 377.824 598.197 377.536C598.475 377.248 598.837 377.104 599.285 377.104C599.477 377.104 599.643 377.141 599.781 377.216V376.032C599.781 375.723 599.701 375.504 599.541 375.376C599.392 375.248 599.163 375.184 598.853 375.184H596.037C595.963 375.045 595.893 374.853 595.829 374.608C595.765 374.363 595.733 374.128 595.733 373.904C595.733 373.36 595.872 372.875 596.149 372.448C596.437 372.021 596.832 371.691 597.333 371.456C597.845 371.211 598.437 371.088 599.109 371.088C599.749 371.088 600.347 371.184 600.901 371.376C601.456 371.568 601.931 371.845 602.325 372.208L601.605 373.088C600.955 372.501 600.107 372.208 599.061 372.208ZM599.349 379.36C599.563 379.36 599.733 379.291 599.861 379.152C600 379.013 600.069 378.843 600.069 378.64C600.069 378.437 600 378.267 599.861 378.128C599.733 377.979 599.563 377.904 599.349 377.904C599.147 377.904 598.976 377.979 598.837 378.128C598.709 378.267 598.645 378.437 598.645 378.64C598.645 378.843 598.709 379.013 598.837 379.152C598.976 379.291 599.147 379.36 599.349 379.36ZM594.746 369.824C594.832 368.896 595.173 368.187 595.77 367.696C596.357 367.205 597.189 366.96 598.266 366.96C599.472 366.96 600.41 367.205 601.082 367.696C601.744 368.187 602.101 368.896 602.154 369.824H594.746ZM600.842 369.008C600.714 368.581 600.437 368.277 600.01 368.096C599.573 367.915 598.992 367.824 598.266 367.824C597.637 367.824 597.13 367.936 596.746 368.16C596.362 368.373 596.144 368.656 596.09 369.008H600.842ZM604.97 380V375.296H604.042V374.672C604.042 373.989 604.208 373.376 604.538 372.832C604.869 372.288 605.328 371.861 605.914 371.552C606.512 371.243 607.184 371.088 607.93 371.088C608.709 371.088 609.392 371.237 609.978 371.536C610.576 371.824 611.034 372.24 611.354 372.784C611.674 373.317 611.834 373.952 611.834 374.688V380H610.538V374.688C610.538 373.877 610.309 373.259 609.85 372.832C609.402 372.405 608.762 372.192 607.93 372.192C607.13 372.192 606.501 372.4 606.042 372.816C605.584 373.232 605.354 373.776 605.354 374.448H607.162V375.296H606.25V380H604.97ZM618.687 374.32C618.687 373.637 618.501 373.115 618.127 372.752C617.754 372.389 617.263 372.208 616.655 372.208C616.154 372.208 615.722 372.32 615.359 372.544C614.997 372.768 614.671 373.115 614.383 373.584L613.407 372.896C613.749 372.32 614.197 371.877 614.751 371.568C615.306 371.248 615.946 371.088 616.671 371.088C617.301 371.088 617.866 371.211 618.367 371.456C618.869 371.701 619.263 372.064 619.551 372.544C619.839 373.024 619.983 373.6 619.983 374.272V380H618.687V374.32ZM625.436 372.208C624.775 372.208 624.263 372.368 623.9 372.688C623.538 373.008 623.356 373.397 623.356 373.856C623.356 374.016 623.362 374.133 623.372 374.208H625.468C626.076 374.208 626.556 374.352 626.908 374.64C627.271 374.917 627.452 375.328 627.452 375.872V378.448C627.452 378.949 627.292 379.36 626.972 379.68C626.652 380 626.236 380.16 625.724 380.16C625.234 380.16 624.85 380.016 624.572 379.728C624.295 379.429 624.156 379.056 624.156 378.608C624.156 378.181 624.295 377.824 624.572 377.536C624.85 377.248 625.212 377.104 625.66 377.104C625.852 377.104 626.018 377.141 626.156 377.216V376.032C626.156 375.723 626.076 375.504 625.916 375.376C625.767 375.248 625.538 375.184 625.228 375.184H622.412C622.338 375.045 622.268 374.853 622.204 374.608C622.14 374.363 622.108 374.128 622.108 373.904C622.108 373.36 622.247 372.875 622.524 372.448C622.812 372.021 623.207 371.691 623.708 371.456C624.22 371.211 624.812 371.088 625.484 371.088C626.124 371.088 626.722 371.184 627.276 371.376C627.831 371.568 628.306 371.845 628.7 372.208L627.98 373.088C627.33 372.501 626.482 372.208 625.436 372.208ZM625.724 379.36C625.938 379.36 626.108 379.291 626.236 379.152C626.375 379.013 626.444 378.843 626.444 378.64C626.444 378.437 626.375 378.267 626.236 378.128C626.108 377.979 625.938 377.904 625.724 377.904C625.522 377.904 625.351 377.979 625.212 378.128C625.084 378.267 625.02 378.437 625.02 378.64C625.02 378.843 625.084 379.013 625.212 379.152C625.351 379.291 625.522 379.36 625.724 379.36ZM633.217 377.104C633.665 377.104 634.028 377.248 634.305 377.536C634.583 377.824 634.721 378.181 634.721 378.608C634.721 379.045 634.577 379.413 634.289 379.712C634.001 380.011 633.612 380.16 633.121 380.16C632.609 380.16 632.199 380.005 631.889 379.696C631.58 379.376 631.425 378.96 631.425 378.448V370.736C631.425 370.149 631.505 369.621 631.665 369.152C631.825 368.672 632.071 368.309 632.401 368.064C632.092 368.149 631.761 368.192 631.409 368.192C631.036 368.192 630.663 368.155 630.289 368.08C629.916 367.995 629.617 367.893 629.393 367.776L629.841 366.672C630.076 366.789 630.364 366.885 630.705 366.96C631.057 367.035 631.431 367.072 631.825 367.072C632.231 367.072 632.631 367.035 633.025 366.96C633.42 366.885 633.719 366.795 633.921 366.688L634.417 367.68L633.585 368.256C633.276 368.469 633.052 368.784 632.913 369.2C632.785 369.616 632.721 370.123 632.721 370.72V377.216C632.86 377.141 633.025 377.104 633.217 377.104ZM633.153 379.36C633.356 379.36 633.521 379.291 633.649 379.152C633.788 379.013 633.857 378.843 633.857 378.64C633.857 378.437 633.788 378.267 633.649 378.128C633.521 377.979 633.356 377.904 633.153 377.904C632.94 377.904 632.764 377.979 632.625 378.128C632.497 378.267 632.433 378.437 632.433 378.64C632.433 378.843 632.497 379.013 632.625 379.152C632.764 379.291 632.94 379.36 633.153 379.36ZM644.065 368.304V380H637.137V374.128C637.009 374.171 636.849 374.192 636.657 374.192C636.209 374.192 635.847 374.048 635.569 373.76C635.303 373.472 635.169 373.115 635.169 372.688C635.169 372.261 635.313 371.899 635.601 371.6C635.9 371.301 636.284 371.152 636.753 371.152C637.265 371.152 637.671 371.301 637.969 371.6C638.268 371.888 638.417 372.288 638.417 372.8V378.912H642.785V368.304H644.065ZM636.017 372.656C636.017 372.859 636.081 373.035 636.209 373.184C636.348 373.323 636.524 373.392 636.737 373.392C636.961 373.392 637.132 373.323 637.249 373.184C637.377 373.045 637.441 372.869 637.441 372.656C637.441 372.453 637.377 372.283 637.249 372.144C637.132 372.005 636.961 371.936 636.737 371.936C636.524 371.936 636.348 372.005 636.209 372.144C636.081 372.283 636.017 372.453 636.017 372.656ZM652.569 371.296H653.849V380H646.553V378C646.553 377.392 646.691 376.896 646.969 376.512C647.246 376.128 647.619 375.893 648.089 375.808V375.776C647.619 375.659 647.225 375.403 646.905 375.008C646.585 374.613 646.425 374.08 646.425 373.408C646.425 372.768 646.627 372.235 647.033 371.808C647.449 371.371 647.977 371.152 648.617 371.152C649.129 371.152 649.534 371.301 649.833 371.6C650.131 371.888 650.281 372.251 650.281 372.688C650.281 373.115 650.137 373.472 649.849 373.76C649.561 374.037 649.187 374.176 648.729 374.176C648.515 374.176 648.307 374.133 648.105 374.048C647.913 373.952 647.753 373.835 647.625 373.696C647.657 374.197 647.827 374.581 648.137 374.848C648.457 375.115 648.883 375.248 649.417 375.248H650.361V376.272H649.417C648.873 376.272 648.473 376.416 648.217 376.704C647.971 376.992 647.849 377.387 647.849 377.888V378.912H652.569V371.296ZM648.729 371.936C648.494 371.936 648.313 372.005 648.185 372.144C648.057 372.283 647.993 372.453 647.993 372.656C647.993 372.869 648.057 373.045 648.185 373.184C648.313 373.323 648.494 373.392 648.729 373.392C648.931 373.392 649.097 373.323 649.225 373.184C649.363 373.035 649.433 372.859 649.433 372.656C649.433 372.464 649.363 372.299 649.225 372.16C649.097 372.011 648.931 371.936 648.729 371.936ZM656.494 366.816C656.43 367.904 656.062 368.688 655.39 369.168C654.729 369.648 653.779 369.888 652.542 369.888C651.635 369.888 650.921 369.723 650.398 369.392C649.865 369.051 649.598 368.571 649.598 367.952C649.598 367.536 649.753 367.189 650.062 366.912C650.361 366.624 650.723 366.48 651.15 366.48C651.609 366.48 651.987 366.619 652.286 366.896C652.574 367.163 652.718 367.52 652.718 367.968C652.718 368.363 652.59 368.672 652.334 368.896C652.462 368.928 652.601 368.944 652.75 368.944C653.486 368.944 654.083 368.779 654.542 368.448C655.001 368.117 655.251 367.573 655.294 366.816H656.494ZM651.15 368.72C651.374 368.72 651.55 368.651 651.678 368.512C651.806 368.373 651.87 368.197 651.87 367.984C651.87 367.771 651.806 367.6 651.678 367.472C651.539 367.344 651.363 367.28 651.15 367.28C650.947 367.28 650.782 367.349 650.654 367.488C650.515 367.616 650.446 367.781 650.446 367.984C650.446 368.197 650.515 368.373 650.654 368.512C650.782 368.651 650.947 368.72 651.15 368.72ZM660.542 371.152C661.054 371.152 661.454 371.301 661.742 371.6C662.041 371.888 662.19 372.288 662.19 372.8V380H658.19L655.694 373.744H657.006L659.07 378.944H660.91V374.112C660.793 374.165 660.638 374.192 660.446 374.192C659.998 374.192 659.635 374.048 659.358 373.76C659.081 373.472 658.942 373.115 658.942 372.688C658.942 372.261 659.086 371.899 659.374 371.6C659.673 371.301 660.062 371.152 660.542 371.152ZM659.806 372.656C659.806 372.859 659.87 373.035 659.998 373.184C660.137 373.323 660.307 373.392 660.51 373.392C660.734 373.392 660.91 373.323 661.038 373.184C661.166 373.045 661.23 372.869 661.23 372.656C661.23 372.453 661.166 372.283 661.038 372.144C660.91 372.005 660.734 371.936 660.51 371.936C660.307 371.936 660.137 372.011 659.998 372.16C659.87 372.299 659.806 372.464 659.806 372.656ZM670.636 380H669.244V368.512H670.636V373.904L675.676 368.512H677.452L672.124 374.208L677.708 380H675.868L670.636 374.592V380ZM680.572 380H679.244V371.504H680.572V380ZM679.9 369.952C679.462 369.664 679.094 369.296 678.796 368.848C679.084 368.4 679.452 368.032 679.9 367.744C680.316 368.011 680.684 368.379 681.004 368.848C680.705 369.296 680.337 369.664 679.9 369.952ZM683.145 380V371.504H684.473V372.912C684.782 372.379 685.182 371.973 685.673 371.696C686.174 371.419 686.745 371.28 687.385 371.28C688.014 371.28 688.58 371.419 689.081 371.696C689.582 371.963 689.977 372.357 690.265 372.88C690.553 373.392 690.697 374 690.697 374.704V380H689.369V374.832C689.369 374.032 689.172 373.44 688.777 373.056C688.393 372.672 687.86 372.48 687.177 372.48C686.356 372.48 685.7 372.741 685.209 373.264C684.718 373.776 684.473 374.464 684.473 375.328V380H683.145ZM696.589 383.376C695.767 383.376 695.031 383.211 694.381 382.88C693.741 382.549 693.261 382.091 692.941 381.504L693.949 380.816C694.173 381.243 694.514 381.579 694.973 381.824C695.442 382.08 695.975 382.208 696.573 382.208C697.426 382.208 698.061 381.995 698.477 381.568C698.893 381.141 699.101 380.544 699.101 379.776V379.04C698.546 379.808 697.703 380.192 696.573 380.192C695.41 380.192 694.498 379.845 693.837 379.152C693.175 378.459 692.845 377.509 692.845 376.304V375.2C692.845 373.984 693.17 373.029 693.821 372.336C694.482 371.643 695.399 371.296 696.573 371.296C697.703 371.296 698.546 371.685 699.101 372.464V371.504H700.429V379.92C700.429 380.997 700.098 381.84 699.437 382.448C698.786 383.067 697.837 383.376 696.589 383.376ZM696.653 379.008C697.442 379.008 698.045 378.795 698.461 378.368C698.887 377.931 699.101 377.227 699.101 376.256V375.232C699.101 374.261 698.887 373.563 698.461 373.136C698.045 372.709 697.442 372.496 696.653 372.496C695.874 372.496 695.266 372.731 694.829 373.2C694.391 373.669 694.173 374.389 694.173 375.36V376.144C694.173 377.104 694.391 377.824 694.829 378.304C695.277 378.773 695.885 379.008 696.653 379.008ZM707.338 380V368.512H710.906C712.175 368.512 713.173 368.843 713.898 369.504C714.623 370.155 714.986 371.051 714.986 372.192C714.986 373.365 714.623 374.288 713.898 374.96C713.173 375.632 712.175 375.968 710.906 375.968H708.73V380H707.338ZM710.906 374.704C711.77 374.704 712.426 374.491 712.874 374.064C713.333 373.637 713.562 373.013 713.562 372.192C713.562 371.413 713.333 370.816 712.874 370.4C712.426 369.984 711.77 369.776 710.906 369.776H708.73V374.704H710.906ZM720.23 380.224C719.494 380.224 718.838 380.069 718.262 379.76C717.686 379.451 717.238 379.019 716.918 378.464C716.598 377.909 716.438 377.264 716.438 376.528V374.992C716.438 374.256 716.598 373.611 716.918 373.056C717.238 372.501 717.686 372.069 718.262 371.76C718.838 371.451 719.494 371.296 720.23 371.296C720.977 371.296 721.638 371.451 722.214 371.76C722.79 372.069 723.238 372.501 723.558 373.056C723.878 373.611 724.038 374.256 724.038 374.992V376.528C724.038 377.264 723.878 377.909 723.558 378.464C723.238 379.019 722.79 379.451 722.214 379.76C721.638 380.069 720.977 380.224 720.23 380.224ZM720.23 379.024C720.998 379.024 721.601 378.8 722.038 378.352C722.476 377.893 722.694 377.232 722.694 376.368V375.152C722.694 374.288 722.476 373.632 722.038 373.184C721.601 372.725 720.998 372.496 720.23 372.496C719.462 372.496 718.86 372.725 718.422 373.184C717.985 373.632 717.766 374.288 717.766 375.152V376.368C717.766 377.232 717.985 377.893 718.422 378.352C718.86 378.8 719.462 379.024 720.23 379.024ZM728.331 380.048H727.723L724.763 371.504H726.139L728.123 377.552L730.475 371.504H731.099L733.467 377.552L735.483 371.504H736.875L733.851 380.048H733.243L730.795 373.808L728.331 380.048ZM739.157 376.032V376.432C739.147 377.243 739.365 377.883 739.813 378.352C740.261 378.811 740.848 379.04 741.573 379.04C742.192 379.04 742.693 378.896 743.077 378.608C743.461 378.32 743.739 377.936 743.909 377.456L745.109 377.968C744.821 378.672 744.384 379.227 743.797 379.632C743.211 380.027 742.475 380.224 741.589 380.224C740.843 380.224 740.181 380.064 739.605 379.744C739.04 379.424 738.597 378.981 738.277 378.416C737.957 377.84 737.797 377.184 737.797 376.448V375.056C737.797 374.331 737.957 373.685 738.277 373.12C738.597 372.544 739.04 372.096 739.605 371.776C740.181 371.456 740.837 371.296 741.573 371.296C742.32 371.296 742.981 371.461 743.557 371.792C744.133 372.112 744.576 372.565 744.885 373.152C745.195 373.728 745.349 374.395 745.349 375.152V376.032H739.157ZM741.573 372.464C740.869 372.464 740.309 372.672 739.893 373.088C739.477 373.504 739.243 374.128 739.189 374.96H743.973C743.963 374.171 743.739 373.557 743.301 373.12C742.864 372.683 742.288 372.464 741.573 372.464ZM747.551 380V371.504H748.831V372.896C749.013 372.405 749.317 372.021 749.743 371.744C750.181 371.456 750.65 371.312 751.151 371.312C751.557 371.312 751.898 371.355 752.175 371.44V372.608C751.919 372.544 751.605 372.512 751.231 372.512C750.463 372.512 749.877 372.773 749.471 373.296C749.077 373.819 748.879 374.64 748.879 375.76V380H747.551Z" fill="#323232"/>
<defs>
<clipPath id="clip0_809_58859">
<rect width="50.5905" height="9.14286" fill="white" transform="translate(502.57 270.572)"/>
</clipPath>
</defs>
</svg>
